<?xml version="1.0" encoding="UTF-8" standalone="no"?>
<!DOCTYPE svg PUBLIC "-//W3C//DTD SVG 1.1//EN"
 "http://www.w3.org/Graphics/SVG/1.1/DTD/svg11.dtd">
<!-- Generated by graphviz version 2.43.0 (0)
 -->
<!-- Title: %3 Pages: 1 -->
<svg width="1385pt" height="332pt"
 viewBox="0.00 0.00 1384.59 332.00" xmlns="http://www.w3.org/2000/svg" xmlns:xlink="http://www.w3.org/1999/xlink">
<g id="graph0" class="graph" transform="scale(1 1) rotate(0) translate(4 328)">
<title>%3</title>
<polygon fill="white" stroke="transparent" points="-4,4 -4,-328 1380.59,-328 1380.59,4 -4,4"/>
<!-- [root] google_dataproc_cluster.tbd&#45;dataproc&#45;cluster (expand) -->
<g id="node1" class="node">
<title>[root] google_dataproc_cluster.tbd&#45;dataproc&#45;cluster (expand)</title>
<polygon fill="none" stroke="black" points="967.76,-180 629.76,-180 629.76,-144 967.76,-144 967.76,-180"/>
<text text-anchor="middle" x="798.76" y="-158.3" font-family="Times,serif" font-size="14.00">google_dataproc_cluster.tbd&#45;dataproc&#45;cluster</text>
</g>
<!-- [root] google_project_service.dataproc (expand) -->
<g id="node2" class="node">
<title>[root] google_project_service.dataproc (expand)</title>
<polygon fill="none" stroke="black" points="466.76,-108 220.76,-108 220.76,-72 466.76,-72 466.76,-108"/>
<text text-anchor="middle" x="343.76" y="-86.3" font-family="Times,serif" font-size="14.00">google_project_service.dataproc</text>
</g>
<!-- [root] google_dataproc_cluster.tbd&#45;dataproc&#45;cluster (expand)&#45;&gt;[root] google_project_service.dataproc (expand) -->
<g id="edge1" class="edge">
<title>[root] google_dataproc_cluster.tbd&#45;dataproc&#45;cluster (expand)&#45;&gt;[root] google_project_service.dataproc (expand)</title>
<path fill="none" stroke="black" d="M688.04,-143.97C620.47,-133.57 534.05,-120.27 464.69,-109.6"/>
<polygon fill="black" stroke="black" points="465.01,-106.11 454.59,-108.05 463.94,-113.03 465.01,-106.11"/>
</g>
<!-- [root] var.image_version -->
<g id="node4" class="node">
<title>[root] var.image_version</title>
<polygon fill="none" stroke="black" points="624.76,-108 484.76,-108 484.76,-72 630.76,-72 630.76,-102 624.76,-108"/>
<polyline fill="none" stroke="black" points="624.76,-108 624.76,-102 "/>
<polyline fill="none" stroke="black" points="630.76,-102 624.76,-102 "/>
<text text-anchor="middle" x="557.76" y="-86.3" font-family="Times,serif" font-size="14.00">var.image_version</text>
</g>
<!-- [root] google_dataproc_cluster.tbd&#45;dataproc&#45;cluster (expand)&#45;&gt;[root] var.image_version -->
<g id="edge2" class="edge">
<title>[root] google_dataproc_cluster.tbd&#45;dataproc&#45;cluster (expand)&#45;&gt;[root] var.image_version</title>
<path fill="none" stroke="black" d="M740.12,-143.97C705.86,-134.01 662.45,-121.41 626.58,-110.99"/>
<polygon fill="black" stroke="black" points="627.25,-107.54 616.67,-108.11 625.3,-114.26 627.25,-107.54"/>
</g>
<!-- [root] var.machine_type -->
<g id="node5" class="node">
<title>[root] var.machine_type</title>
<polygon fill="none" stroke="black" points="784.26,-108 649.26,-108 649.26,-72 790.26,-72 790.26,-102 784.26,-108"/>
<polyline fill="none" stroke="black" points="784.26,-108 784.26,-102 "/>
<polyline fill="none" stroke="black" points="790.26,-102 784.26,-102 "/>
<text text-anchor="middle" x="719.76" y="-86.3" font-family="Times,serif" font-size="14.00">var.machine_type</text>
</g>
<!-- [root] google_dataproc_cluster.tbd&#45;dataproc&#45;cluster (expand)&#45;&gt;[root] var.machine_type -->
<g id="edge3" class="edge">
<title>[root] google_dataproc_cluster.tbd&#45;dataproc&#45;cluster (expand)&#45;&gt;[root] var.machine_type</title>
<path fill="none" stroke="black" d="M779.24,-143.7C769.38,-134.97 757.28,-124.24 746.57,-114.75"/>
<polygon fill="black" stroke="black" points="748.87,-112.12 739.07,-108.1 744.23,-117.36 748.87,-112.12"/>
</g>
<!-- [root] var.project_name -->
<g id="node6" class="node">
<title>[root] var.project_name</title>
<polygon fill="none" stroke="black" points="941.26,-108 808.26,-108 808.26,-72 947.26,-72 947.26,-102 941.26,-108"/>
<polyline fill="none" stroke="black" points="941.26,-108 941.26,-102 "/>
<polyline fill="none" stroke="black" points="947.26,-102 941.26,-102 "/>
<text text-anchor="middle" x="877.76" y="-86.3" font-family="Times,serif" font-size="14.00">var.project_name</text>
</g>
<!-- [root] google_dataproc_cluster.tbd&#45;dataproc&#45;cluster (expand)&#45;&gt;[root] var.project_name -->
<g id="edge4" class="edge">
<title>[root] google_dataproc_cluster.tbd&#45;dataproc&#45;cluster (expand)&#45;&gt;[root] var.project_name</title>
<path fill="none" stroke="black" d="M818.29,-143.7C828.15,-134.97 840.25,-124.24 850.96,-114.75"/>
<polygon fill="black" stroke="black" points="853.3,-117.36 858.46,-108.1 848.66,-112.12 853.3,-117.36"/>
</g>
<!-- [root] var.region -->
<g id="node7" class="node">
<title>[root] var.region</title>
<polygon fill="none" stroke="black" points="1048.26,-108 965.26,-108 965.26,-72 1054.26,-72 1054.26,-102 1048.26,-108"/>
<polyline fill="none" stroke="black" points="1048.26,-108 1048.26,-102 "/>
<polyline fill="none" stroke="black" points="1054.26,-102 1048.26,-102 "/>
<text text-anchor="middle" x="1009.76" y="-86.3" font-family="Times,serif" font-size="14.00">var.region</text>
</g>
<!-- [root] google_dataproc_cluster.tbd&#45;dataproc&#45;cluster (expand)&#45;&gt;[root] var.region -->
<g id="edge5" class="edge">
<title>[root] google_dataproc_cluster.tbd&#45;dataproc&#45;cluster (expand)&#45;&gt;[root] var.region</title>
<path fill="none" stroke="black" d="M850.11,-143.97C881.95,-133.4 922.82,-119.85 955.23,-109.09"/>
<polygon fill="black" stroke="black" points="956.61,-112.32 965,-105.85 954.41,-105.68 956.61,-112.32"/>
</g>
<!-- [root] var.subnet -->
<g id="node8" class="node">
<title>[root] var.subnet</title>
<polygon fill="none" stroke="black" points="1158.76,-108 1072.76,-108 1072.76,-72 1164.76,-72 1164.76,-102 1158.76,-108"/>
<polyline fill="none" stroke="black" points="1158.76,-108 1158.76,-102 "/>
<polyline fill="none" stroke="black" points="1164.76,-102 1158.76,-102 "/>
<text text-anchor="middle" x="1118.76" y="-86.3" font-family="Times,serif" font-size="14.00">var.subnet</text>
</g>
<!-- [root] google_dataproc_cluster.tbd&#45;dataproc&#45;cluster (expand)&#45;&gt;[root] var.subnet -->
<g id="edge6" class="edge">
<title>[root] google_dataproc_cluster.tbd&#45;dataproc&#45;cluster (expand)&#45;&gt;[root] var.subnet</title>
<path fill="none" stroke="black" d="M896.22,-143.98C943.97,-135.05 1002.45,-123.24 1062.93,-108.09"/>
<polygon fill="black" stroke="black" points="1063.81,-111.48 1072.65,-105.63 1062.1,-104.69 1063.81,-111.48"/>
</g>
<!-- [root] provider[&quot;registry.terraform.io/hashicorp/google&quot;] -->
<g id="node3" class="node">
<title>[root] provider[&quot;registry.terraform.io/hashicorp/google&quot;]</title>
<polygon fill="none" stroke="black" points="343.76,-36 0.24,-18 343.76,0 687.29,-18 343.76,-36"/>
<text text-anchor="middle" x="343.76" y="-14.3" font-family="Times,serif" font-size="14.00">provider[&quot;registry.terraform.io/hashicorp/google&quot;]</text>
</g>
<!-- [root] google_project_service.dataproc (expand)&#45;&gt;[root] provider[&quot;registry.terraform.io/hashicorp/google&quot;] -->
<g id="edge7" class="edge">
<title>[root] google_project_service.dataproc (expand)&#45;&gt;[root] provider[&quot;registry.terraform.io/hashicorp/google&quot;]</title>
<path fill="none" stroke="black" d="M343.76,-71.7C343.76,-63.98 343.76,-54.71 343.76,-46.11"/>
<polygon fill="black" stroke="black" points="347.26,-46.1 343.76,-36.1 340.26,-46.1 347.26,-46.1"/>
</g>
<!-- [root] output.dataproc_cluster_name (expand) -->
<g id="node9" class="node">
<title>[root] output.dataproc_cluster_name (expand)</title>
<ellipse fill="none" stroke="black" cx="525.76" cy="-234" rx="223.66" ry="18"/>
<text text-anchor="middle" x="525.76" y="-230.3" font-family="Times,serif" font-size="14.00">[root] output.dataproc_cluster_name (expand)</text>
</g>
<!-- [root] output.dataproc_cluster_name (expand)&#45;&gt;[root] google_dataproc_cluster.tbd&#45;dataproc&#45;cluster (expand) -->
<g id="edge8" class="edge">
<title>[root] output.dataproc_cluster_name (expand)&#45;&gt;[root] google_dataproc_cluster.tbd&#45;dataproc&#45;cluster (expand)</title>
<path fill="none" stroke="black" d="M589.43,-216.68C629.1,-206.5 680.39,-193.35 722.27,-182.62"/>
<polygon fill="black" stroke="black" points="723.33,-185.96 732.15,-180.08 721.59,-179.18 723.33,-185.96"/>
</g>
<!-- [root] provider[&quot;registry.terraform.io/hashicorp/google&quot;] (close) -->
<g id="node10" class="node">
<title>[root] provider[&quot;registry.terraform.io/hashicorp/google&quot;] (close)</title>
<ellipse fill="none" stroke="black" cx="1071.76" cy="-234" rx="304.65" ry="18"/>
<text text-anchor="middle" x="1071.76" y="-230.3" font-family="Times,serif" font-size="14.00">[root] provider[&quot;registry.terraform.io/hashicorp/google&quot;] (close)</text>
</g>
<!-- [root] provider[&quot;registry.terraform.io/hashicorp/google&quot;] (close)&#45;&gt;[root] google_dataproc_cluster.tbd&#45;dataproc&#45;cluster (expand) -->
<g id="edge9" class="edge">
<title>[root] provider[&quot;registry.terraform.io/hashicorp/google&quot;] (close)&#45;&gt;[root] google_dataproc_cluster.tbd&#45;dataproc&#45;cluster (expand)</title>
<path fill="none" stroke="black" d="M1006.72,-216.32C967.15,-206.18 916.43,-193.17 874.99,-182.54"/>
<polygon fill="black" stroke="black" points="875.76,-179.13 865.21,-180.04 874.02,-185.91 875.76,-179.13"/>
</g>
<!-- [root] root -->
<g id="node11" class="node">
<title>[root] root</title>
<ellipse fill="none" stroke="black" cx="798.76" cy="-306" rx="58.49" ry="18"/>
<text text-anchor="middle" x="798.76" y="-302.3" font-family="Times,serif" font-size="14.00">[root] root</text>
</g>
<!-- [root] root&#45;&gt;[root] output.dataproc_cluster_name (expand) -->
<g id="edge10" class="edge">
<title>[root] root&#45;&gt;[root] output.dataproc_cluster_name (expand)</title>
<path fill="none" stroke="black" d="M755.21,-293.83C713.22,-283.07 648.89,-266.57 599.02,-253.78"/>
<polygon fill="black" stroke="black" points="599.81,-250.37 589.25,-251.28 598.07,-257.15 599.81,-250.37"/>
</g>
<!-- [root] root&#45;&gt;[root] provider[&quot;registry.terraform.io/hashicorp/google&quot;] (close) -->
<g id="edge11" class="edge">
<title>[root] root&#45;&gt;[root] provider[&quot;registry.terraform.io/hashicorp/google&quot;] (close)</title>
<path fill="none" stroke="black" d="M842.32,-293.83C883.96,-283.16 947.56,-266.85 997.25,-254.11"/>
<polygon fill="black" stroke="black" points="998.17,-257.48 1006.99,-251.61 996.43,-250.7 998.17,-257.48"/>
</g>
</g>
</svg>
